<?xml version="1.0" standalone="no"?>
<!DOCTYPE svg PUBLIC "-//W3C//DTD SVG 20010904//EN"
 "http://www.w3.org/TR/2001/REC-SVG-20010904/DTD/svg10.dtd">
<svg version="1.0" xmlns="http://www.w3.org/2000/svg"
 width="1112.000000pt" height="1280.000000pt" viewBox="0 0 1112.000000 1280.000000"
 preserveAspectRatio="xMidYMid meet">
<metadata>
Created by potrace 1.15, written by Peter Selinger 2001-2017
</metadata>
<g transform="translate(0.000000,1280.000000) scale(0.100000,-0.100000)"
fill="#000000" stroke="none">
<path d="M5530 12793 c-37 -14 -64 -61 -251 -435 -110 -219 -200 -398 -202
-398 -1 0 -199 -29 -439 -64 -308 -44 -445 -68 -463 -80 -37 -24 -59 -76 -51
-119 6 -30 56 -83 324 -343 174 -170 320 -313 323 -319 3 -5 -27 -199 -67
-430 -40 -231 -73 -434 -74 -452 0 -61 80 -121 142 -105 13 3 197 97 411 209
l387 203 387 -202 c213 -112 398 -206 410 -210 64 -18 143 43 142 110 0 20
-33 224 -74 452 l-73 415 327 321 326 322 0 50 c0 58 -26 95 -79 111 -17 6
-209 35 -426 66 -217 30 -408 58 -424 61 -26 6 -43 35 -222 398 -106 215 -204
402 -218 415 -24 23 -87 36 -116 24z"/>
<path d="M5295 9688 c-356 -186 -373 -192 -545 -192 -126 -1 -141 1 -221 30
l-86 31 -529 -746 c-291 -410 -545 -777 -564 -815 -33 -65 -35 -76 -35 -165 1
-76 5 -108 24 -154 58 -146 193 -247 352 -264 33 -3 58 -9 57 -13 -2 -3 -151
-214 -332 -469 -180 -254 -326 -464 -323 -467 6 -7 258 32 430 67 983 199
1818 592 2547 1199 162 135 486 459 628 627 192 229 437 566 428 589 -3 7
-100 148 -217 312 l-212 299 -60 -23 c-132 -52 -319 -57 -447 -14 -36 13 -189
87 -341 166 -151 79 -277 144 -280 144 -2 0 -125 -64 -274 -142z"/>
<path d="M7369 8313 c-556 -740 -1236 -1311 -2064 -1732 -742 -378 -1573 -611
-2475 -696 -91 -9 -168 -19 -171 -23 -36 -38 -895 -1264 -911 -1300 -30 -67
-36 -211 -13 -283 32 -100 114 -202 195 -244 83 -43 113 -48 312 -54 l198 -6
-714 -1005 -714 -1005 46 -3 c117 -9 621 37 922 84 1926 298 3596 1241 4836
2730 403 484 831 1138 1112 1700 l49 99 -293 413 c-162 227 -294 415 -294 418
0 2 13 4 30 4 16 0 53 5 82 11 251 53 398 337 293 566 -23 51 -263 403 -305
446 -16 18 -21 13 -121 -120z"/>
<path d="M8317 6018 c-14 -24 -55 -97 -92 -163 -557 -995 -1308 -1896 -2142
-2569 -40 -32 -73 -62 -73 -66 0 -11 234 -211 415 -355 878 -699 1775 -1215
2735 -1573 558 -208 1126 -349 1717 -426 l33 -5 -39 57 c-22 31 -519 732
-1105 1557 l-1066 1500 198 6 c172 5 204 8 255 28 114 45 209 143 248 260 30
90 24 222 -14 301 -15 30 -256 378 -536 773 l-510 717 -24 -42z"/>
<path d="M5454 2826 c-770 -516 -1706 -923 -2664 -1161 -647 -160 -1340 -251
-1960 -258 l-215 -2 -277 -390 c-153 -215 -289 -416 -303 -448 -50 -109 -42
-256 19 -360 56 -95 166 -175 269 -196 37 -8 1573 -10 5277 -9 l5225 3 55 22
c95 39 188 129 224 215 l16 37 -43 5 c-23 2 -136 14 -250 26 -822 84 -1704
342 -2607 764 -854 399 -1816 1042 -2595 1735 -44 39 -82 71 -85 71 -3 0 -42
-24 -86 -54z"/>
</g>
</svg>
